<svg width="663" height="155" viewBox="0 0 663 155" fill="none" xmlns="http://www.w3.org/2000/svg">
<path d="M347.579 66.9647C358.879 61.3247 369.959 59.6747 381.489 64.3747C389.079 67.4647 394.409 72.9247 398.459 79.7847C407.059 94.3447 404.509 116.415 392.619 128.745C382.159 139.585 364.979 143.545 347.769 133.515C345.859 134.905 344.209 136.645 342.189 137.495C333.979 140.955 330.389 138.595 330.379 129.975C330.379 100.395 330.459 70.8247 330.319 41.2447C330.289 33.9747 329.379 26.7147 329.219 19.4447C329.199 18.2747 330.899 16.2047 332.019 16.0447C335.279 15.5947 338.679 15.6147 341.969 15.9747C346.609 16.4847 347.559 19.9847 347.569 23.9447C347.569 36.2447 347.569 48.5347 347.569 60.8347C347.569 62.6447 347.569 64.4447 347.569 66.9647H347.579ZM347.579 100.505C347.579 102.995 347.579 105.495 347.579 107.985C347.579 116.151 351.666 121.178 359.839 123.065C370.629 125.565 380.699 120.305 384.809 110.035C389.389 98.5747 386.069 86.0347 376.979 80.5047C369.609 76.0247 355.829 76.7847 349.189 82.2647C348.249 83.0347 347.709 84.7447 347.659 86.0547C347.479 90.8647 347.589 95.6947 347.589 100.515L347.579 100.505Z" fill="white"/>
<path d="M218.92 95.6847C228.98 85.1047 238.1 75.4847 247.27 65.9047C250.28 62.7647 262.08 60.7647 265.88 62.8647C269.02 64.6047 267.5 66.5947 265.75 68.4147C258.25 76.1947 250.79 84.0047 243.24 91.7247C241.16 93.8447 238.81 95.6947 238.71 96.6447C248.14 106.935 257.56 117.225 267.02 127.495C268.37 128.955 270.1 130.095 271.29 131.665C272.28 132.985 273.67 135.185 273.19 136.145C272.59 137.345 270.31 138.065 268.65 138.325C260.94 139.495 254.82 137.365 249.31 131.165C241.05 121.865 231.74 113.505 222.86 104.745C221.84 103.745 220.76 102.815 218.93 101.145C218.93 112.155 218.69 122.215 219.03 132.245C219.19 137.075 217.64 138.615 212.82 138.475C200.14 138.095 202.05 139.735 202.02 127.515C201.94 97.1247 202.04 66.7347 201.95 36.3447C201.94 31.2347 201.44 26.1247 201 21.0247C200.72 17.7647 201.05 15.7647 205.28 15.7747C218.12 15.8147 219.16 15.7047 218.99 29.1447C218.72 50.8747 218.92 72.6147 218.92 95.6747V95.6847Z" fill="white"/>
<path d="M662.399 100.665C663.529 121.105 645.849 139.255 623.719 139.355C601.529 139.465 583.739 121.545 584.409 99.0047C585.029 78.0547 602.059 61.6047 623.829 61.4347C645.159 61.2647 663.979 79.8347 662.399 100.665ZM623.559 77.2447C611.129 77.2847 600.699 87.5547 600.619 99.8247C600.529 112.845 610.889 123.585 623.519 123.565C635.829 123.545 646.409 113.105 646.469 100.915C646.539 87.7347 636.349 77.2047 623.559 77.2447Z" fill="white"/>
<path d="M552.881 78.6547C552.881 91.2047 552.431 103.285 553.071 115.305C553.401 121.535 555.731 122.665 561.941 122.665C562.601 122.665 563.271 122.665 563.931 122.665C571.191 122.505 570.911 122.585 572.951 129.455C574.371 134.225 573.061 137.155 568.311 137.585C562.111 138.155 555.661 138.935 549.631 137.845C541.581 136.405 537.411 129.965 536.721 122.175C535.841 112.135 535.881 102.015 535.601 91.9247C535.481 87.6547 535.581 83.3847 535.581 78.6547C533.141 78.6547 531.151 78.8847 529.251 78.5847C527.651 78.3247 524.891 77.5447 524.841 76.8247C524.671 74.5447 524.691 71.1247 526.101 70.0447C536.041 62.4447 542.331 52.3847 547.311 41.2147C547.911 39.8747 550.021 39.2047 552.541 37.4647V62.4147C557.491 62.4147 561.931 62.5247 566.361 62.3847C570.171 62.2647 571.641 63.7447 571.551 67.6847C571.231 80.4747 572.991 78.4947 560.811 78.6647C558.191 78.7047 555.581 78.6647 552.861 78.6647L552.881 78.6547Z" fill="white"/>
<path d="M437.299 69.3647C444.479 63.8047 452.359 60.3247 461.359 62.0647C466.329 63.0247 471.049 65.3247 476.369 67.1847C474.729 69.8947 473.929 71.3247 473.019 72.6747C469.532 77.8347 464.699 79.628 458.519 78.0547C448.089 75.4047 435.949 83.6447 436.799 94.7147C437.759 107.255 436.889 119.935 437.089 132.545C437.159 137.065 435.659 138.635 431.019 138.475C419.289 138.075 419.859 140.125 419.879 127.065C419.899 107.975 419.829 88.8847 419.959 69.7947C419.979 67.0147 418.359 63.1247 423.399 62.4147C431.289 61.3147 434.919 62.6747 436.679 67.6347C436.829 68.0647 436.989 68.5047 437.299 69.3547V69.3647Z" fill="white"/>
<path d="M506.759 100.615C506.759 111.395 506.659 122.185 506.819 132.965C506.879 136.895 505.809 138.565 501.469 138.485C490.999 138.305 489.749 137.295 489.749 126.885C489.749 107.475 489.879 88.0647 489.669 68.6547C489.619 63.9147 491.079 62.1847 495.899 62.3047C508.799 62.6247 506.579 61.3147 506.729 73.2347C506.839 82.3547 506.749 91.4847 506.759 100.605V100.615Z" fill="white"/>
<path d="M308.08 100.485C308.08 111.435 307.98 122.385 308.13 133.335C308.18 137.185 306.79 138.505 302.87 138.475C292.24 138.395 291.01 137.315 291.01 126.525C291.01 107.275 291.01 88.0347 291.02 68.7847C291.02 62.6847 291.29 62.3847 297.53 62.4047C309.51 62.4447 307.99 61.3347 308.07 72.6147C308.14 81.9047 308.08 91.1947 308.08 100.485Z" fill="white"/>
<path d="M507.58 25.2647C507.62 30.5247 503.5 34.7547 498.33 34.7547C493.5 34.7547 488.9 30.0347 488.95 25.1247C489 20.5047 493.52 15.9947 498.21 15.8747C503.32 15.7547 507.54 19.9847 507.58 25.2547V25.2647Z" fill="white"/>
<path d="M308.81 25.2247C308.86 30.5447 304.69 34.8247 299.51 34.7647C294.8 34.7147 290.37 30.2547 290.26 25.4347C290.14 20.5547 294.91 15.7947 299.8 15.8947C304.79 15.9947 308.76 20.1147 308.81 25.2247Z" fill="white"/>
<path d="M145.709 121.925C145.099 125.805 144.809 129.785 143.749 133.535C143.309 135.105 141.259 137.245 139.919 137.275C138.199 137.305 135.489 135.825 134.909 134.335C133.489 130.715 132.879 126.735 132.269 122.845C131.639 118.765 131.669 114.575 130.839 110.545C130.509 108.905 128.689 107.565 127.549 106.095C127.169 106.335 126.789 106.575 126.409 106.815C125.959 110.065 125.889 113.435 124.919 116.525C124.329 118.405 122.349 119.855 120.989 121.495C119.369 120.105 116.809 118.975 116.319 117.265C114.879 112.215 114.009 106.955 113.429 101.725C113.149 99.1747 112.569 97.7047 110.149 96.3747C77.939 78.8447 44.779 63.3847 10.759 49.7547C2.83904 46.5747 -2.61096 32.9147 1.28904 25.3047C2.26904 23.4047 4.16904 21.3547 6.09904 20.6747C12.439 18.4247 19.019 16.8347 25.459 14.8447C27.619 14.1747 29.569 12.7847 31.749 12.2147C43.339 9.19471 53.949 2.79471 66.459 2.75471C71.149 2.73471 75.789 0.464707 80.519 0.0947075C90.249 -0.655293 94.699 3.00471 94.779 12.6647C94.829 17.9547 96.739 20.8647 100.649 24.0347C119.329 39.1147 132.669 58.5047 143.699 79.4947C150.069 91.6147 156.349 103.945 160.919 116.805C163.889 125.155 163.839 134.615 164.869 143.605C165.079 145.465 164.649 147.845 163.589 149.315C162.119 151.355 160.019 153.465 157.729 154.265C154.339 155.465 152.279 152.535 151.659 149.825C150.159 143.245 149.249 136.535 148.119 129.875C147.659 127.165 147.219 124.455 146.779 121.745C146.419 121.805 146.059 121.875 145.709 121.935V121.925ZM25.529 41.6247C25.609 42.2247 25.699 42.8247 25.779 43.4147C55.199 52.7547 82.049 67.4247 108.359 83.2147C115.449 87.4647 119.569 93.3747 119.059 101.965C118.969 103.495 119.279 105.055 119.399 106.595C120.599 105.855 120.739 104.795 121.349 104.255C123.229 102.585 125.289 99.8947 127.269 99.9047C129.519 99.9147 132.369 101.965 133.849 103.945C135.539 106.205 136.439 109.315 136.919 112.175C137.739 117.125 137.969 122.185 138.449 127.195C139.559 124.585 139.329 121.705 140.209 119.215C141.109 116.645 143.089 114.455 144.599 112.105C146.749 113.865 149.969 115.225 150.829 117.485C152.559 122.045 153.119 127.065 153.959 131.925C154.899 137.355 155.609 142.825 156.419 148.275L158.559 147.995C160.089 140.005 159.719 131.925 157.419 124.145C150.689 101.405 138.789 81.1447 126.179 61.2947C124.859 59.2247 122.069 57.8247 119.669 56.7547C116.009 55.1147 111.909 54.3047 109.369 49.4647C112.179 49.0547 114.189 48.7647 116.649 48.4047C109.769 38.8647 101.269 31.3147 92.099 24.4847C91.119 23.7547 89.209 23.8147 87.859 24.1047C80.739 25.6047 73.569 26.9647 66.599 28.9947C52.839 32.9847 39.209 37.3847 25.519 41.6147L25.529 41.6247ZM20.079 39.1247C22.129 38.1447 24.319 37.0447 26.559 36.0447C45.399 27.5947 65.489 23.4247 85.499 18.9947C86.689 18.7347 88.809 18.0447 88.789 17.6147C88.659 14.2147 88.669 10.6247 87.449 7.55471C86.949 6.30471 83.429 5.42471 81.469 5.70471C72.509 6.97471 63.619 8.71471 54.709 10.3047C54.229 10.3947 53.779 10.6647 53.299 10.7847C42.079 13.6447 31.949 19.9247 20.219 21.2547C18.079 21.4947 16.029 22.6047 14.199 23.2147C16.259 28.8047 18.119 33.8447 20.059 39.1147L20.079 39.1247ZM7.03904 26.3147C4.54904 35.4547 7.52904 42.8847 14.359 44.6447C13.429 37.9147 12.739 31.4447 7.03904 26.3147ZM75.089 71.5447C75.229 71.1947 75.369 70.8547 75.519 70.5047C63.719 65.0647 51.929 59.6247 40.129 54.1847C39.939 54.5947 39.759 54.9947 39.569 55.4047C50.959 60.7047 62.349 66.0047 73.739 71.2947C74.139 71.4847 74.629 71.4647 75.079 71.5447H75.089Z" fill="#E2E2E2"/>
<path d="M133.668 91.9047C127.048 86.3447 120.658 81.0447 117.438 72.9947C117.178 72.3347 118.908 69.9447 119.758 69.9247C127.808 69.6547 136.908 83.3847 133.668 91.9047Z" fill="#E2E2E2"/>
<path d="M47.0781 43.8847C52.6981 37.9547 67.2581 38.9047 72.7681 45.2947C68.2681 50.8647 53.3181 50.1747 47.0781 43.8847Z" fill="#E2E2E2"/>
<path d="M106.998 65.3247C99.9081 70.2847 86.4581 61.4247 84.7281 53.3447C84.6181 52.8447 87.1181 51.0047 88.2181 51.1547C92.7181 51.7547 104.038 60.5247 106.998 65.3247Z" fill="#E2E2E2"/>
<path d="M102.358 44.1547C95.3385 42.1347 88.2484 40.3247 81.3384 37.9947C79.1984 37.2747 77.5185 34.6847 81.0785 33.4747C88.9585 30.8147 100.748 35.2547 102.928 41.8447C103.018 42.1047 102.788 42.4647 102.348 44.1547H102.358Z" fill="#E2E2E2"/>
</svg>
