<svg width="663" height="155" viewBox="0 0 663 155" fill="none" xmlns="http://www.w3.org/2000/svg">
<path d="M347.579 66.96C358.879 61.32 369.959 59.67 381.489 64.37C389.079 67.46 394.409 72.92 398.459 79.78C407.059 94.34 404.509 116.41 392.619 128.74C382.159 139.58 364.979 143.54 347.769 133.51C345.859 134.9 344.209 136.64 342.189 137.49C333.979 140.95 330.389 138.59 330.379 129.97C330.379 100.39 330.459 70.82 330.319 41.24C330.289 33.97 329.379 26.71 329.219 19.44C329.199 18.27 330.899 16.2 332.019 16.04C335.279 15.59 338.679 15.61 341.969 15.97C346.609 16.48 347.559 19.98 347.569 23.94C347.569 36.24 347.569 48.53 347.569 60.83C347.569 62.64 347.569 64.44 347.569 66.96H347.579ZM347.579 100.5C347.579 102.99 347.579 105.49 347.579 107.98C347.579 116.147 351.666 121.173 359.839 123.06C370.629 125.56 380.699 120.3 384.809 110.03C389.389 98.57 386.069 86.03 376.979 80.5C369.609 76.02 355.829 76.78 349.189 82.26C348.249 83.03 347.709 84.74 347.659 86.05C347.479 90.86 347.589 95.69 347.589 100.51L347.579 100.5Z" fill="#3F5169"/>
<path d="M218.92 95.68C228.98 85.1 238.1 75.48 247.27 65.9C250.28 62.76 262.08 60.76 265.88 62.86C269.02 64.6 267.5 66.59 265.75 68.41C258.25 76.19 250.79 84 243.24 91.72C241.16 93.84 238.81 95.69 238.71 96.64C248.14 106.93 257.56 117.22 267.02 127.49C268.37 128.95 270.1 130.09 271.29 131.66C272.28 132.98 273.67 135.18 273.19 136.14C272.59 137.34 270.31 138.06 268.65 138.32C260.94 139.49 254.82 137.36 249.31 131.16C241.05 121.86 231.74 113.5 222.86 104.74C221.84 103.74 220.76 102.81 218.93 101.14C218.93 112.15 218.69 122.21 219.03 132.24C219.19 137.07 217.64 138.61 212.82 138.47C200.14 138.09 202.05 139.73 202.02 127.51C201.94 97.12 202.04 66.73 201.95 36.34C201.94 31.23 201.44 26.12 201 21.02C200.72 17.76 201.05 15.76 205.28 15.77C218.12 15.81 219.16 15.7 218.99 29.14C218.72 50.87 218.92 72.61 218.92 95.67V95.68Z" fill="#3F5169"/>
<path d="M662.399 100.66C663.529 121.1 645.849 139.25 623.719 139.35C601.529 139.46 583.739 121.54 584.409 99C585.029 78.05 602.059 61.6 623.829 61.43C645.159 61.26 663.979 79.83 662.399 100.66ZM623.559 77.24C611.129 77.28 600.699 87.55 600.619 99.82C600.529 112.84 610.889 123.58 623.519 123.56C635.829 123.54 646.409 113.1 646.469 100.91C646.539 87.73 636.349 77.2 623.559 77.24Z" fill="#3F5169"/>
<path d="M552.881 78.65C552.881 91.2 552.431 103.28 553.071 115.3C553.401 121.53 555.731 122.66 561.941 122.66C562.601 122.66 563.271 122.66 563.931 122.66C571.191 122.5 570.911 122.58 572.951 129.45C574.371 134.22 573.061 137.15 568.311 137.58C562.111 138.15 555.661 138.93 549.631 137.84C541.581 136.4 537.411 129.96 536.721 122.17C535.841 112.13 535.881 102.01 535.601 91.92C535.481 87.65 535.581 83.38 535.581 78.65C533.141 78.65 531.151 78.88 529.251 78.58C527.651 78.32 524.891 77.54 524.841 76.82C524.671 74.54 524.691 71.12 526.101 70.04C536.041 62.44 542.331 52.38 547.311 41.21C547.911 39.87 550.021 39.2 552.541 37.46V62.41C557.491 62.41 561.931 62.52 566.361 62.38C570.171 62.26 571.641 63.74 571.551 67.68C571.231 80.47 572.991 78.49 560.811 78.66C558.191 78.7 555.581 78.66 552.861 78.66L552.881 78.65Z" fill="#3F5169"/>
<path d="M437.299 69.36C444.479 63.8 452.359 60.32 461.359 62.06C466.329 63.02 471.049 65.32 476.369 67.18C474.729 69.89 473.929 71.32 473.019 72.67C469.532 77.83 464.699 79.6233 458.519 78.05C448.089 75.4 435.949 83.64 436.799 94.71C437.759 107.25 436.889 119.93 437.089 132.54C437.159 137.06 435.659 138.63 431.019 138.47C419.289 138.07 419.859 140.12 419.879 127.06C419.899 107.97 419.829 88.88 419.959 69.79C419.979 67.01 418.359 63.12 423.399 62.41C431.289 61.31 434.919 62.67 436.679 67.63C436.829 68.06 436.989 68.5 437.299 69.35V69.36Z" fill="#3F5169"/>
<path d="M506.759 100.61C506.759 111.39 506.659 122.18 506.819 132.96C506.879 136.89 505.809 138.56 501.469 138.48C490.999 138.3 489.749 137.29 489.749 126.88C489.749 107.47 489.879 88.06 489.669 68.65C489.619 63.91 491.079 62.18 495.899 62.3C508.799 62.62 506.579 61.31 506.729 73.23C506.839 82.35 506.749 91.48 506.759 100.6V100.61Z" fill="#3F5169"/>
<path d="M308.08 100.48C308.08 111.43 307.98 122.38 308.13 133.33C308.18 137.18 306.79 138.5 302.87 138.47C292.24 138.39 291.01 137.31 291.01 126.52C291.01 107.27 291.01 88.03 291.02 68.78C291.02 62.68 291.29 62.38 297.53 62.4C309.51 62.44 307.99 61.33 308.07 72.61C308.14 81.9 308.08 91.19 308.08 100.48Z" fill="#3F5169"/>
<path d="M507.58 25.26C507.62 30.52 503.5 34.75 498.33 34.75C493.5 34.75 488.9 30.03 488.95 25.12C489 20.5 493.52 15.99 498.21 15.87C503.32 15.75 507.54 19.98 507.58 25.25V25.26Z" fill="#3F5169"/>
<path d="M308.81 25.22C308.86 30.54 304.69 34.82 299.51 34.76C294.8 34.71 290.37 30.25 290.26 25.43C290.14 20.55 294.91 15.79 299.8 15.89C304.79 15.99 308.76 20.11 308.81 25.22Z" fill="#3F5169"/>
<path d="M145.709 121.92C145.099 125.8 144.809 129.78 143.749 133.53C143.309 135.1 141.259 137.24 139.919 137.27C138.199 137.3 135.489 135.82 134.909 134.33C133.489 130.71 132.879 126.73 132.269 122.84C131.639 118.76 131.669 114.57 130.839 110.54C130.509 108.9 128.689 107.56 127.549 106.09C127.169 106.33 126.789 106.57 126.409 106.81C125.959 110.06 125.889 113.43 124.919 116.52C124.329 118.4 122.349 119.85 120.989 121.49C119.369 120.1 116.809 118.97 116.319 117.26C114.879 112.21 114.009 106.95 113.429 101.72C113.149 99.17 112.569 97.7 110.149 96.37C77.939 78.84 44.779 63.38 10.759 49.75C2.83904 46.57 -2.61096 32.91 1.28904 25.3C2.26904 23.4 4.16904 21.35 6.09904 20.67C12.439 18.42 19.019 16.83 25.459 14.84C27.619 14.17 29.569 12.78 31.749 12.21C43.339 9.19001 53.949 2.79001 66.459 2.75001C71.149 2.73001 75.789 0.460008 80.519 0.0900077C90.249 -0.659992 94.699 3.00001 94.779 12.66C94.829 17.95 96.739 20.86 100.649 24.03C119.329 39.11 132.669 58.5 143.699 79.49C150.069 91.61 156.349 103.94 160.919 116.8C163.889 125.15 163.839 134.61 164.869 143.6C165.079 145.46 164.649 147.84 163.589 149.31C162.119 151.35 160.019 153.46 157.729 154.26C154.339 155.46 152.279 152.53 151.659 149.82C150.159 143.24 149.249 136.53 148.119 129.87C147.659 127.16 147.219 124.45 146.779 121.74C146.419 121.8 146.059 121.87 145.709 121.93V121.92ZM25.529 41.62C25.609 42.22 25.699 42.82 25.779 43.41C55.199 52.75 82.049 67.42 108.359 83.21C115.449 87.46 119.569 93.37 119.059 101.96C118.969 103.49 119.279 105.05 119.399 106.59C120.599 105.85 120.739 104.79 121.349 104.25C123.229 102.58 125.289 99.89 127.269 99.9C129.519 99.91 132.369 101.96 133.849 103.94C135.539 106.2 136.439 109.31 136.919 112.17C137.739 117.12 137.969 122.18 138.449 127.19C139.559 124.58 139.329 121.7 140.209 119.21C141.109 116.64 143.089 114.45 144.599 112.1C146.749 113.86 149.969 115.22 150.829 117.48C152.559 122.04 153.119 127.06 153.959 131.92C154.899 137.35 155.609 142.82 156.419 148.27L158.559 147.99C160.089 140 159.719 131.92 157.419 124.14C150.689 101.4 138.789 81.14 126.179 61.29C124.859 59.22 122.069 57.82 119.669 56.75C116.009 55.11 111.909 54.3 109.369 49.46C112.179 49.05 114.189 48.76 116.649 48.4C109.769 38.86 101.269 31.31 92.099 24.48C91.119 23.75 89.209 23.81 87.859 24.1C80.739 25.6 73.569 26.96 66.599 28.99C52.839 32.98 39.209 37.38 25.519 41.61L25.529 41.62ZM20.079 39.12C22.129 38.14 24.319 37.04 26.559 36.04C45.399 27.59 65.489 23.42 85.499 18.99C86.689 18.73 88.809 18.04 88.789 17.61C88.659 14.21 88.669 10.62 87.449 7.55001C86.949 6.30001 83.429 5.42001 81.469 5.70001C72.509 6.97001 63.619 8.71001 54.709 10.3C54.229 10.39 53.779 10.66 53.299 10.78C42.079 13.64 31.949 19.92 20.219 21.25C18.079 21.49 16.029 22.6 14.199 23.21C16.259 28.8 18.119 33.84 20.059 39.11L20.079 39.12ZM7.03904 26.31C4.54904 35.45 7.52904 42.88 14.359 44.64C13.429 37.91 12.739 31.44 7.03904 26.31ZM75.089 71.54C75.229 71.19 75.369 70.85 75.519 70.5C63.719 65.06 51.929 59.62 40.129 54.18C39.939 54.59 39.759 54.99 39.569 55.4C50.959 60.7 62.349 66 73.739 71.29C74.139 71.48 74.629 71.46 75.079 71.54H75.089Z" fill="#475be8"/>
<path d="M133.668 91.9C127.048 86.34 120.658 81.04 117.438 72.99C117.178 72.33 118.908 69.94 119.758 69.92C127.808 69.65 136.908 83.38 133.668 91.9Z" fill="#475be8"/>
<path d="M47.0781 43.88C52.6981 37.95 67.2581 38.9 72.7681 45.29C68.2681 50.86 53.3181 50.17 47.0781 43.88Z" fill="#475be8"/>
<path d="M106.998 65.32C99.9081 70.28 86.4581 61.42 84.7281 53.34C84.6181 52.84 87.1181 51 88.2181 51.15C92.7181 51.75 104.038 60.52 106.998 65.32Z" fill="#475be8"/>
<path d="M102.358 44.15C95.3385 42.13 88.2484 40.32 81.3384 37.99C79.1984 37.27 77.5185 34.68 81.0785 33.47C88.9585 30.81 100.748 35.25 102.928 41.84C103.018 42.1 102.788 42.46 102.348 44.15H102.358Z" fill="#475be8"/>
</svg>
